Coordinates
version=1
nRows=11
nColumns=63
inDegrees=yes

Units are S.I. units (second, meters, Newtons, ...)
If the header above contains a line with 'inDegrees', this indicates whether rotational values are in degrees (yes) or radians (no).

endheader
time	pelvis_tilt	pelvis_list	pelvis_rotation	pelvis_tx	pelvis_ty	pelvis_tz	hip_flexion_r	hip_adduction_r	hip_rotation_r	knee_angle_r	knee_angle_r_beta	ankle_angle_r	subtalar_angle_r	mtp_angle_r	hip_flexion_l	hip_adduction_l	hip_rotation_l	knee_angle_l	knee_angle_l_beta	ankle_angle_l	subtalar_angle_l	mtp_angle_l	L5_S1_Flex_Ext	L5_S1_Lat_Bending	L5_S1_axial_rotation	L4_L5_Flex_Ext	L4_L5_Lat_Bending	L4_L5_axial_rotation	L3_L4_Flex_Ext	L3_L4_Lat_Bending	L3_L4_axial_rotation	L2_L3_Flex_Ext	L2_L3_Lat_Bending	L2_L3_axial_rotation	L1_L2_Flex_Ext	L1_L2_Lat_Bending	L1_L2_axial_rotation	L1_T12_Flex_Ext	L1_T12_Lat_Bending	L1_T12_axial_rotation	Abs_r3	Abs_r2	Abs_r1	Abs_t1	Abs_t2	neck_flexion	neck_bending	neck_rotation	arm_flex_r	arm_add_r	arm_rot_r	elbow_flex_r	pro_sup_r	wrist_flex_r	wrist_dev_r	arm_flex_l	arm_add_l	arm_rot_l	elbow_flex_l	pro_sup_l	wrist_flex_l	wrist_dev_l
4.474576	13.339113	-29.930189	113.860927	0.152475	0.320156	1.150581	48.871216	-5.192333	-16.436776	31.836635	0.555654	41.427483	-5.296408	0.000000	53.098916	1.688398	5.845218	29.437400	0.513780	39.773018	18.155066	0.000000	-0.282984	-0.253504	0.786600	-0.525530	-0.337161	0.835762	-0.464915	-0.616370	0.835762	-0.323423	-0.616370	0.688275	-0.262779	-0.516946	0.639112	-0.161697	-0.392678	0.589950	-2.021327	-2.867691	4.374831	0.000000	0.000000	11.757131	5.921514	-4.343002	58.566652	-8.351693	24.638590	99.224491	84.267454	6.175001	16.587039	48.068745	-1.794683	13.706468	101.425268	53.514774	-10.255329	-16.566054
4.491525	13.255753	-30.020004	113.902907	0.151273	0.320288	1.149597	48.955825	-5.472004	-16.551725	32.095776	0.560177	41.665787	-5.044197	0.000000	53.093939	1.868738	5.859825	29.356119	0.512361	39.964071	18.231729	0.000000	-0.284644	-0.325119	0.906835	-0.528613	-0.432408	0.963513	-0.467642	-0.790493	0.963513	-0.325320	-0.790493	0.793481	-0.264321	-0.662982	0.736804	-0.162646	-0.503609	0.680127	-2.033187	-3.677807	5.043547	0.000000	0.000000	11.881964	6.294495	-5.619988	57.992373	-9.294734	24.059652	100.154901	85.857154	6.859827	16.819843	47.630924	-1.555155	14.464787	101.622278	52.445249	-9.488295	-18.098203
4.508475	13.100661	-30.091545	113.862667	0.150232	0.320557	1.148626	49.045158	-5.742581	-16.590372	32.374866	0.565048	41.880344	-4.844247	0.000000	53.023345	2.039141	5.805734	29.213574	0.509873	40.120441	18.279114	0.000000	-0.287021	-0.399065	1.042597	-0.533026	-0.530756	1.107759	-0.471546	-0.970286	1.107759	-0.328036	-0.970286	0.912272	-0.266528	-0.813773	0.847110	-0.164004	-0.618151	0.781948	-2.050161	-4.514300	5.798612	0.000000	0.000000	11.977621	6.513827	-7.000355	57.414512	-10.261572	22.730220	101.233908	87.758748	7.251392	16.870190	46.947228	-1.548052	14.865182	102.051128	52.622981	-8.693067	-19.308989
4.525424	12.846284	-30.135804	113.698015	0.149409	0.320993	1.147618	49.108897	-5.983294	-16.503262	32.639510	0.569667	42.057235	-4.716459	0.000000	52.857213	2.188766	5.642996	28.999331	0.506134	40.240271	18.301963	0.000000	-0.291109	-0.477935	1.199183	-0.540619	-0.635653	1.274132	-0.478263	-1.162051	1.274132	-0.332709	-1.162051	1.049285	-0.270324	-0.974605	0.974336	-0.166340	-0.740321	0.899387	-2.079363	-5.406494	6.669495	0.000000	0.000000	12.001392	6.634024	-8.499313	56.887393	-11.124499	20.569158	102.501770	89.790259	7.326998	16.833838	46.137514	-1.734221	15.020319	102.571501	53.918013	-7.938885	-20.180740
4.542373	12.460425	-30.167575	113.365324	0.148869	0.321577	1.146539	49.153870	-6.193489	-16.231325	32.891717	0.574069	42.183998	-4.673472	0.000000	52.598643	2.318923	5.314909	28.727199	0.501384	40.312882	18.314002	0.000000	-0.294025	-0.565907	1.374499	-0.546033	-0.752656	1.460405	-0.483053	-1.375946	1.460405	-0.336041	-1.375946	1.202687	-0.273031	-1.153997	1.116781	-0.168006	-0.876590	1.030874	-2.100188	-6.401652	7.644552	0.000000	0.000000	11.911563	6.713875	-10.066579	56.442970	-11.747747	17.617093	104.016930	91.486002	6.879704	16.741124	45.320508	-2.123493	15.094517	103.081784	55.888972	-7.475692	-20.801037
4.559322	11.985871	-30.154581	112.913049	0.148492	0.322344	1.145373	49.118598	-6.358946	-15.827028	33.083945	0.577424	42.241865	-4.712942	0.000000	52.220217	2.428043	4.896617	28.390582	0.495509	40.334023	18.297819	0.000000	-0.297581	-0.656149	1.550432	-0.552638	-0.872678	1.647334	-0.488896	-1.595360	1.647334	-0.340105	-1.595360	1.356628	-0.276334	-1.338019	1.259726	-0.170038	-1.016374	1.162824	-2.125592	-7.422486	8.623035	0.000000	0.000000	11.696322	6.780022	-11.586673	56.079094	-12.045088	14.015607	105.842004	92.380561	5.799871	16.525937	44.571930	-2.638103	15.018784	103.535088	58.537763	-7.094783	-20.968975
4.576271	11.464672	-30.081530	112.366706	0.148173	0.323296	1.144090	48.971608	-6.458637	-15.318483	33.180578	0.579110	42.202806	-4.850646	0.000000	51.720244	2.506856	4.432176	28.002833	0.488742	40.302388	18.230380	0.000000	-0.301224	-0.741387	1.707282	-0.559402	-0.986045	1.813987	-0.494880	-1.802609	1.813987	-0.344268	-1.802609	1.493871	-0.279716	-1.511837	1.387166	-0.172119	-1.148409	1.280461	-2.151610	-8.386720	9.495388	0.000000	0.000000	11.368767	6.854458	-12.799960	55.743089	-11.913515	9.928387	108.055906	92.334785	4.127140	16.207869	43.935269	-3.277952	14.710444	103.954209	61.983862	-6.788906	-20.452070
4.593220	10.895433	-29.953078	111.706122	0.147858	0.324441	1.142632	48.699861	-6.497973	-14.732975	33.176072	0.579032	42.082454	-5.005542	0.000000	51.078064	2.553287	3.949013	27.549552	0.480830	40.223087	18.059866	0.000000	-0.305105	-0.821307	1.838353	-0.566610	-1.092338	1.953250	-0.501257	-1.996925	1.953250	-0.348704	-1.996925	1.608559	-0.283320	-1.674809	1.493661	-0.174337	-1.272204	1.378764	-2.179334	-9.290786	10.224366	0.000000	0.000000	10.986946	6.909007	-13.667647	55.333744	-11.316645	5.489974	110.705675	91.157411	1.986613	15.648685	43.459519	-4.024398	14.167963	104.265739	66.058681	-6.454753	-19.458467
4.610169	10.319108	-29.776871	110.947356	0.147448	0.325751	1.140948	48.302642	-6.465164	-14.131616	33.057234	0.576958	41.896382	-5.102873	0.000000	50.313681	2.549511	3.492698	27.053247	0.472168	40.095707	17.734674	0.000000	-0.307784	-0.889800	1.930939	-0.571586	-1.183435	2.051622	-0.505659	-2.163461	2.051622	-0.351766	-2.163461	1.689571	-0.285808	-1.814481	1.568888	-0.175868	-1.378301	1.448204	-2.198471	-10.065600	10.739302	0.000000	0.000000	10.600653	6.952446	-13.983177	54.814934	-10.258945	0.876783	113.815865	89.384207	-0.400770	14.813994	43.097107	-4.883023	13.331772	104.565577	70.506105	-6.138746	-17.809209
4.627119	9.839802	-29.535812	110.179675	0.146740	0.327169	1.139089	47.773006	-6.319406	-13.595868	32.802635	0.572514	41.637754	-5.156916	0.000000	49.469369	2.461250	3.142930	26.561371	0.463583	39.947393	17.265689	0.000000	-0.308675	-0.932153	1.963211	-0.573241	-1.239764	2.085912	-0.507122	-2.266437	2.085912	-0.352785	-2.266437	1.717810	-0.286636	-1.900847	1.595109	-0.176377	-1.443905	1.472408	-2.204835	-10.544703	10.918792	0.000000	0.000000	10.257298	6.933570	-13.562192	54.264057	-8.821740	-3.551003	117.320724	86.578947	-2.930046	13.781717	42.737412	-5.814206	12.079249	104.942039	75.280570	-5.926802	-15.504283
4.644068	9.456457	-29.238934	109.386412	0.145733	0.328658	1.137065	47.131361	-6.064804	-13.136674	32.436197	0.566118	41.339400	-5.104748	0.000000	48.558760	2.276560	2.869677	26.088937	0.455338	39.785109	16.664183	0.000000	-0.307984	-0.948466	1.935118	-0.571958	-1.261460	2.056062	-0.505988	-2.306101	2.056062	-0.351995	-2.306101	1.693228	-0.285994	-1.934112	1.572283	-0.175982	-1.469174	1.451338	-2.199902	-10.729240	10.762543	0.000000	0.000000	9.974289	6.861030	-12.372965	53.729936	-7.066528	-7.579201	121.133091	82.679464	-5.270852	12.802658	42.302740	-6.788552	10.399510	105.452585	80.062271	-5.834044	-12.668008
